<svg t="1577684077952" class="icon" viewBox="0 0 1024 1024" version="1.1" xmlns="http://www.w3.org/2000/svg" p-id="1370" width="200" height="200"><path d="M579.3 761.6c-6-2.9-13.2-2.3-18.6 1.5l-62 36.7V496.6l244.6-124.8-0.1 81.2c0 7.8 5.2 14.5 12.6 16.4 7.4 1.9 15.3-1.5 19.4-8.3 1.7-2.8 2.5-6 2.5-9.3l0.1-105.6c0.1-1 0.1-2 0-2.9 0-0.5 0.1-1 0.1-1.5 0-7.5-4.1-14.3-10.8-17.8L489.7 177c-5.8-3-12.8-3-18.6 0L193.6 318.5c-6.7 3.4-10.8 10.3-10.9 17.7 0 0.9 0 1.8 0.2 2.7-0.6 2-1 4.1-1 6.3v313.6c0.2 7.1 4 13.6 10.2 17.1l276.4 169.5c2.3 1.4 4.9 2.4 7.6 2.8 1 0.2 1.9 0.2 2.9 0.3 3 0 6-0.8 8.7-2.2l2.1-1.2 89.4-52.8c6-2.9 9.8-8.8 9.9-15.3 0-6.6-3.8-12.5-9.8-15.4z m-98.7-556.2l103.1 54.1-242.6 134.2L229 334.4l251.6-129zM469 811.3L211.6 653.2V363.7l108.8 57.6v86.8c0 6.8 3.5 13.1 9.3 16.6l14.2 8.7c7.2 4.4 16.5-0.8 16.5-9.3v-81.7L469 499.9v311.4z m12.2-343.7l-97.5-51.5L626.5 282l106.3 55.7-251.6 129.9z" fill="#FF9933" p-id="1371"></path><path d="M758.8 500.9c-1.4-1.4-3.3-2-5.2-1.8h-51.2c-1.9-0.3-3.9 0.4-5.2 1.8-1.4 1.4-2 3.3-1.8 5.2-0.3 1.9 0.4 3.9 1.8 5.2 1.4 1.4 3.3 2 5.2 1.8h51.2c1.9 0.3 3.9-0.4 5.2-1.8 1.4-1.4 2-3.3 1.8-5.2 0.2-1.8-0.5-3.8-1.8-5.2zM786.7 589.4c-1.3-1.4-3.3-2-5.2-1.8h-107c-1.9-0.3-3.9 0.3-5.3 1.7s-2.1 3.3-1.8 5.3c-0.3 1.9 0.4 3.9 1.8 5.2 1.4 1.4 3.3 2 5.2 1.8h107c1.9 0.3 3.9-0.4 5.2-1.8 1.4-1.4 2-3.3 1.8-5.2 0.3-1.9-0.3-3.8-1.7-5.2zM786.7 640.6c-1.3-1.4-3.3-2-5.2-1.8h-107c-1.9-0.3-3.9 0.3-5.3 1.7s-2.1 3.3-1.8 5.3c-0.3 1.9 0.4 3.9 1.8 5.2 1.4 1.4 3.3 2 5.2 1.8h107c1.9 0.3 3.9-0.4 5.2-1.8 1.4-1.4 2-3.3 1.8-5.2 0.3-2-0.3-3.9-1.7-5.2zM786.7 691.7c-1.3-1.4-3.3-2-5.2-1.8h-107c-1.9-0.3-3.9 0.3-5.3 1.7s-2.1 3.3-1.8 5.3c-0.3 1.9 0.4 3.9 1.8 5.2 1.4 1.4 3.3 2 5.2 1.8h107c1.9 0.3 3.9-0.4 5.2-1.8 1.4-1.4 2-3.3 1.8-5.2 0.3-1.9-0.3-3.8-1.7-5.2z" fill="#FF9933" p-id="1372"></path><path d="M821 499.2h-35.4c-4.2 0-7.9 2.8-9 6.9l-1.9 7.1-4.3 16.3c-1.1 4.1-4.8 6.9-9 6.9h-66.6c-4.2 0-7.9-2.9-9-6.9l-4.3-16.3-2-7.1c-1.1-4.1-4.8-6.9-9-6.9H635c-10.3 0-18.6 8.3-18.6 18.6v223.3c0 10.3 8.3 18.6 18.6 18.6h186c10.3 0 18.6-8.3 18.6-18.6V517.8c0-10.3-8.3-18.6-18.6-18.6z m4.7 127.7V739c0 3.7-3 6.7-6.7 6.7H637c-3.7 0-6.7-3-6.7-6.7V519.8c0-3.7 3-6.7 6.7-6.7h22.9c4.3 0 8 2.9 9 7l6.2 23.3c1.1 4.1 4.8 6.9 9 6.9h88c4.3 0 8-2.9 9-7l6.2-23.3c1.1-4.1 4.8-6.9 9-6.9h22.8c3.6 0 6.6 2.9 6.6 6.6v107.2z" fill="#FF9933" p-id="1373"></path></svg>