<svg t="1577684301758" class="icon" viewBox="0 0 1024 1024" version="1.1" xmlns="http://www.w3.org/2000/svg" p-id="10147" width="200" height="200"><path d="M847.9 845.3H807h16.2c13.8-0.8 24.7-12.2 24.7-26.2v26.2zM186.3 845.3h40.9H211c-13.8-0.8-24.7-12.2-24.7-26.2v26.2zM847.9 183.5H807h16.2c13.8 0.8 24.7 12.2 24.7 26.2v-26.2zM186.3 183.5h40.9H211c-13.8 0.8-24.7 12.2-24.7 26.2v-26.2zM1004.6 514.4c0 22.6-18.3 41-41 41H71.2c-22.6 0-41-18.3-41-41 0-22.6 18.3-41 41-41h892.5c22.6 0 40.9 18.4 40.9 41z" fill="#FF9933" p-id="10148"></path><path d="M866.2 927c35.4-2.4 63.4-31.9 63.4-67.9v-0.5h0.1V648.3c0-22.6-18.3-41-41-41-22.6 0-41 18.3-41 41v196.8H186.4V648.3c0-22.6-18.3-41-41-41-22.6 0-41 18.3-41 41v156h0.1v54.5c0 37.6 30.5 68.1 68.1 68.1h0.5v0.1h693.1zM862.2 101.9h-0.5v-0.1H163c-31.8 4.4-56.6 30.7-58.5 63.3v215.5c0 22.6 18.3 41 41 41 22.6 0 41-18.3 41-41V183.7h661.4v196.8c0 22.6 18.3 41 41 41 22.6 0 41-18.3 41-41V161.6c-4.3-33.7-33-59.7-67.7-59.7z" fill="#FF9933" p-id="10149"></path></svg>