<svg t="1577684447315" class="icon" viewBox="0 0 1024 1024" version="1.1" xmlns="http://www.w3.org/2000/svg" p-id="13327" width="200" height="200"><path d="M734.843 394.334 734.843 394.334 734.843 394.334l-91.1-91.1c-7.5-7.502-20.32-2.19-20.32 8.417l0 70.782c0 6.572-5.33 11.9-11.905 11.9L262.252 394.333c-6.573 0-11.902 5.33-11.902 11.9l0 31.907c0 6.577 5.328 11.9 11.902 11.9l499.566 0c10.605 0 15.91-12.817 8.415-20.32L734.843 394.334 734.843 394.334zM289.154 629.658 289.154 629.658 289.154 629.658l91.102 91.105c7.5 7.495 20.323 2.18 20.323-8.415l0-70.78c0-6.585 5.328-11.91 11.902-11.91l349.282 0c6.57 0 11.905-5.33 11.905-11.905l0-31.9c0-6.57-5.335-11.905-11.905-11.905L262.179 573.948c-10.607 0-15.915 12.815-8.415 20.32L289.154 629.658 289.154 629.658zM511.999 981.282c-258.767 0-469.289-210.515-469.289-469.281 0-258.769 210.522-469.291 469.289-469.291 258.769 0 469.294 210.522 469.294 469.291C981.292 770.768 770.768 981.282 511.999 981.282zM511.999 81.227c-237.529 0-430.771 193.24-430.771 430.774 0 237.522 193.24 430.766 430.771 430.766 237.529 0 430.769-193.245 430.769-430.766C942.768 274.467 749.523 81.227 511.999 81.227z" p-id="13328" fill="#FF9933"></path></svg>