<svg t="1577276307025" class="icon" viewBox="0 0 1024 1024" version="1.1" xmlns="http://www.w3.org/2000/svg" p-id="1969" width="200" height="200"><path d="M170.01995993 431.53453422a20.11093497 20.11093497 0 0 0 20.11817693-20.11817694V190.13813686h221.27822042a20.11817693 20.11817693 0 1 0 0-40.23635388H170.01995993A20.11093497 20.11093497 0 0 0 149.90178298 170.01995993v241.39639735a20.11093497 20.11093497 0 0 0 20.11817696 20.11817694zM411.41635728 833.86186314H190.13813686V612.58364272a20.11817693 20.11817693 0 1 0-40.23635388 0v241.39639734A20.11093497 20.11093497 0 0 0 170.01995993 874.09821702h241.39639735a20.11817693 20.11817693 0 0 0 0-40.23635388zM853.98004007 149.90178298H612.58364272a20.11817693 20.11817693 0 1 0 0 40.23635388h221.27822042v221.27822042a20.11817693 20.11817693 0 1 0 40.23635388 0V170.01995993A20.10369301 20.10369301 0 0 0 853.98004007 149.90178298zM853.98004007 592.46546578a20.10369301 20.10369301 0 0 0-20.11817693 20.11817694v221.27822042H612.58364272a20.11817693 20.11817693 0 1 0 0 40.23635388h241.39639734a20.10369301 20.10369301 0 0 0 20.11817696-20.11817696V612.58364272a20.10369301 20.10369301 0 0 0-20.11817696-20.11817694zM853.98004007 491.88182307H170.01995993a20.11817693 20.11817693 0 0 0 1e-8 40.23635386h683.96008013a20.11817693 20.11817693 0 0 0 0-40.23635386z" fill="#1296db" p-id="1970"></path></svg>