<svg xmlns="http://www.w3.org/2000/svg" class="icon" viewBox="0 0 1024 1024" width="200" height="200" t="1577189444570" p-id="7518" version="1.1"><path fill="#ffaa47" d="M 63.3 251.1 c 0 -103 83.4 -186.6 186.6 -186.6 h 522 c 103 0 186.6 83.4 186.6 186.6 v 522 c 0 103 -83.4 186.6 -186.6 186.6 h -522 c -103 0 -186.6 -83.4 -186.6 -186.6 v -522 Z" p-id="7519" /><path fill="#ffffff" d="M 341.2 773.2 c -40 0 -72.7 -29.3 -72.7 -65.4 V 316.4 c 0 -36.1 32.8 -65.4 72.7 -65.4 h 339.5 c 40 0 72.7 29.3 72.7 65.4 v 391.7 c 0 36.1 -32.8 65.1 -72.7 65.1 H 341.2 Z" p-id="7520" /><path fill="#ffaa47" d="M 650.9 624 h -280 c -15.4 0 -27.8 -12.5 -27.8 -28 s 12.5 -28 27.8 -28 h 280 c 15.4 0 27.8 12.5 27.8 28 c 0.1 16 -12.4 28 -27.8 28 Z M 544.6 456.2 H 365.4 c -12.3 0 -22.3 -12.5 -22.3 -28 s 10 -28 22.3 -28 h 179.2 c 12.3 0 22.3 12.5 22.3 28 c 0.3 15.5 -9.7 28 -22.3 28 Z" p-id="7521" /></svg>