<svg xmlns="http://www.w3.org/2000/svg" class="icon" viewBox="0 0 1026 1024" width="200" height="200" t="1577259835361" p-id="16211" version="1.1"><path fill="#eaab28" d="M 661.504 391.168 H 361.882 c -12.4928 0 -22.528 10.24 -22.528 22.528 c 0 12.4928 10.24 22.528 22.528 22.528 H 661.504 c 12.4928 0 22.528 -10.24 22.528 -22.528 c 0 -12.4928 -10.0352 -22.528 -22.528 -22.528 Z" p-id="16212" /><path fill="#eaab28" d="M 720.077 0 H 308.019 C 139.674 0 2.048 137.626 2.048 305.971 v 412.058 C 2.048 886.374 139.674 1024 308.019 1024 h 412.058 c 168.346 0 305.971 -137.626 305.971 -305.971 V 305.971 C 1026.05 137.626 888.422 0 720.077 0 Z m 41.1648 601.293 c 0 35.2256 -28.8768 64.1024 -64.1024 64.1024 h -44.032 l -54.4768 60.0064 l -54.0672 -60.0064 H 330.957 c -35.2256 0 -64.1024 -28.8768 -64.1024 -64.1024 V 362.906 c 0 -35.2256 28.8768 -64.1024 64.1024 -64.1024 h 366.182 c 35.2256 0 64.1024 28.8768 64.1024 64.1024 v 238.387 Z" p-id="16213" /><path fill="#eaab28" d="M 569.958 512 H 361.882 c -12.4928 0 -22.528 10.24 -22.528 22.528 c 0 12.4928 10.24 22.528 22.528 22.528 h 208.077 c 12.4928 0 22.528 -10.24 22.528 -22.528 c 0 -12.4928 -10.24 -22.528 -22.528 -22.528 Z" p-id="16214" /></svg>