<svg t="1577684266152" class="icon" viewBox="0 0 1024 1024" version="1.1" xmlns="http://www.w3.org/2000/svg" p-id="8764" width="200" height="200"><path d="M851.5 109.7H172.7C112.9 109.7 64 158.6 64 218.4v589.1c0 59.8 48.9 108.7 108.7 108.7h678.8c59.8 0 108.7-48.9 108.7-108.7V218.4c0-59.8-48.9-108.7-108.7-108.7z m-231 702c-12.7 13.3-30.4 20.9-48.7 20.9h-0.3L190 830.8c-17.7 0-34.4-7.9-45.7-21.7-11.2-13.8-15.6-31.7-12.1-49.1 19.2-93.5 88.5-166.8 176.2-194.5-40.5-25.7-67.6-70.9-67.6-122.4 0-80 65.1-145.1 145.1-145.1S531 363.1 531 443.1c0 51.4-26.9 96.5-67.4 122.3 84 26.3 150.8 94.2 173.4 183 1.1 4.2 1.7 8.6 2 13.2 1 18.4-5.7 36.7-18.5 50.1z m216.7-322.4c-82.2-1.2-174.7-1.7-190.8-0.6-2.5 0.4-4.9 0.6-7.4 0.6-19.5 0-37.4-12.8-43.1-32.5-6.8-23.8 7-48.6 30.8-55.4 7.2-2.1 16.1-4.6 211.8-1.7 24.8 0.4 44.5 20.7 44.1 45.5-0.3 24.7-21.2 42.7-45.4 44.1z m0-182.3c-82.2-1.2-174.7-1.7-190.8-0.6-2.5 0.4-4.9 0.6-7.4 0.6-19.5 0-37.4-12.8-43.1-32.5-6.8-23.8 7-48.6 30.8-55.4 7.2-2.1 16.1-4.6 211.8-1.7 24.8 0.4 44.5 20.7 44.1 45.5-0.3 24.6-21.2 42.4-45.4 44.1z" p-id="8765" fill="#FF9933"></path></svg>