<svg t="1577696971827" class="icon" viewBox="0 0 1024 1024" version="1.1" xmlns="http://www.w3.org/2000/svg" p-id="7165" width="200" height="200"><path d="M945.99446 666.592798l-102.116344-150.33795c-39.711911-62.404432-56.731302-133.31856-42.548476-190.049862 5.67313-36.875346 5.67313-73.750693-5.67313-113.462604-22.692521-104.952909-113.462604-187.213296-224.088643-204.232687-96.443213-17.019391-192.886427 8.509695-263.800554 68.077563-56.731302 53.894737-90.770083 121.972299-90.770083 201.396122 0 22.692521 5.67313 39.711911 8.509695 59.567867 14.182825 53.894737 0 113.462604-39.711911 173.03047l-104.952909 158.847646c-25.529086 36.875346-31.202216 82.260388-8.509695 121.972299 25.529086 45.385042 70.914127 73.750693 121.972299 73.750693h138.99169c14.182825 87.933518 85.096953 158.847645 178.703601 158.847645s167.357341-73.750693 178.703601-161.684211h141.828255c53.894737 0 96.443213-28.365651 121.972299-73.750692 17.019391-39.711911 17.019391-87.933518-8.509695-121.972299zM512 947.412742c-42.548476 0-90.770083-39.711911-104.952909-85.096953h204.232687c-11.34626 42.548476-56.731302 85.096953-99.279778 85.096953z m382.936288-204.232687c-5.67313 22.692521-28.365651 45.385042-56.731302 42.548477H197.141274c-31.202216 2.836565-53.894737-28.365651-59.567867-42.548477-34.038781-68.077562 167.357341-170.193906 161.684211-402.792243-36.875346-201.396122 113.462604-269.473684 207.069252-266.637119 93.606648 0 263.800554 34.038781 226.925208 269.473684-8.509695 258.127424 190.049861 323.368421 161.68421 399.955678z" fill="#009933" p-id="7166"></path></svg>