<svg t="1577691254139" class="icon" viewBox="0 0 1024 1024" version="1.1" xmlns="http://www.w3.org/2000/svg" p-id="19185" width="200" height="200"><path d="M851.751 574.404V401.752C851.751 214.421 699.341 62 512 62c-187.342 0-339.752 152.421-339.752 339.751v172.652l-49.151 245.803h777.807l-49.153-245.802zM231.896 731.006l28.682-143.427 0.871-185.827c0-138.157 112.395-250.551 250.551-250.551s250.551 112.394 250.551 250.551v177.073l29.552 152.181H231.896zM610.38 872.8H413.619c-24.63 0-44.6 19.97-44.6 44.601 0 24.63 19.97 44.6 44.6 44.6H610.38c24.63 0 44.601-19.97 44.601-44.6-0.001-24.631-19.971-44.601-44.601-44.601z" p-id="19186" fill="#FF9933"></path></svg>